# xmcd CD database file
#
# Track frame offsets:
#	182
#	60130
#	106637
#
# Disc length: 1800 seconds
#
# Revision: 0
# Processed by: cddbd v1.5.1PL0 Copyright (c) Steve Scherf et al.
# Submitted via: cdripper 1.0.10
#
DISCID=13070603
DTITLE=Robert Cray - An Interview With Robert Cray
DYEAR=1990
DGENRE=Blues
TTITLE0=Part 1
TTITLE1=Part 2
TTITLE2=Part 3
EXTD=YEAR: 1990
EXTT0=
EXTT1=
EXTT2=
PLAYORDER=
